<svg width="32" height="32" viewBox="0 0 32 32" fill="none" xmlns="http://www.w3.org/2000/svg">
  <rect width="32" height="32" fill="white"/>
  <g transform="scale(0.28) translate(-8, 3)">
    {/* X logo with gradient - scaled for favicon */}
    <path
      d="M20 8L35 29L20 50L8 50L20 32L8 8L20 8Z"
      fill="url(#faviconGradient1)"
    />
    <path
      d="M35 8L47 8L35 26L47 50L35 50L20 29L35 8Z"
      fill="url(#faviconGradient2)"
    />
    
    {/* Stylized accent lines */}
    <path
      d="M50 15L70 15L68 18L50 18L50 15Z"
      fill="url(#faviconGradient3)"
      opacity="0.6"
    />
    <path
      d="M50 25L85 25L83 28L50 28L50 25Z"
      fill="url(#faviconGradient3)"
      opacity="0.4"
    />
    <path
      d="M50 35L75 35L73 38L50 38L50 35Z"
      fill="url(#faviconGradient3)"
      opacity="0.3"
    />
  </g>
  
  <defs>
    <linearGradient
      id="faviconGradient1"
      x1="8"
      y1="8"
      x2="35"
      y2="50"
      gradientUnits="userSpaceOnUse"
    >
      <stop stopColor="#8B5CF6" />
      <stop offset="0.5" stopColor="#3B82F6" />
      <stop offset="1" stopColor="#8B5CF6" />
    </linearGradient>
    <linearGradient
      id="faviconGradient2"
      x1="20"
      y1="8"
      x2="47"
      y2="50"
      gradientUnits="userSpaceOnUse"
    >
      <stop stopColor="#A855F7" />
      <stop offset="0.5" stopColor="#6366F1" />
      <stop offset="1" stopColor="#A855F7" />
    </linearGradient>
    <linearGradient
      id="faviconGradient3"
      x1="50"
      y1="15"
      x2="85"
      y2="38"
      gradientUnits="userSpaceOnUse"
    >
      <stop stopColor="#8B5CF6" />
      <stop offset="1" stopColor="#3B82F6" />
    </linearGradient>
  </defs>
</svg>
